<?xml version="1.0" encoding="UTF-8"?>
<svg data-bbox="-0.009 0.002 8.009 8.004" xmlns="http://www.w3.org/2000/svg" viewBox="0 0 8 8" height="8" width="8" data-type="color">
    <g>
        <path fill="#1A6C64" d="M3.993.164a3.84 3.84 0 0 0 0 7.68 3.84 3.84 0 0 0 0-7.68m0 7.842a4.002 4.002 0 0 1 0-8.004 4.002 4.002 0 0 1 0 8.004" data-color="1"/>
        <path fill="#1A6C64" d="M4.526 1.816h-.17l-.37-.617-.804 1.323h1.766l.096.15h-2.11L3.982.9z" data-color="1"/>
        <path fill="#1A6C64" d="M1.505 5.075h.179l1.222-2.08 1.082.745 1.043-.73 1.251 2.054h.17L5.097 2.777l-1.11.768-1.115-.768z" data-color="1"/>
        <path fill="#1A6C64" d="m2.605 4.95 1.378-.959 1.307.955zm1.378-1.136L1.028 5.892l.237.004 1.149-.798 3.078-.003 1.195.78h.246z" data-color="1"/>
        <path fill="#1A6C64" d="M7.702 7.384h.051q.061 0 .061-.04t-.062-.04h-.05zm.167.141h-.047l-.02-.055q-.018-.05-.068-.05h-.032v.105H7.66V7.27h.097q.1 0 .101.07 0 .068-.066.073a.08.08 0 0 1 .05.048zm-.107.068q.081 0 .14-.059a.2.2 0 0 0 .059-.14.2.2 0 0 0-.059-.14.2.2 0 0 0-.14-.059.2.2 0 0 0-.14.058.2.2 0 0 0-.059.14q0 .082.059.141a.2.2 0 0 0 .14.059m0-.437q.098 0 .168.07.07.069.07.168a.23.23 0 0 1-.07.168.23.23 0 0 1-.167.07.23.23 0 0 1-.169-.07.23.23 0 0 1-.07-.168q0-.099.07-.169a.23.23 0 0 1 .169-.07" data-color="1"/>
    </g>
</svg>
